<?xml version="1.0" encoding="utf-8"?>
<!-- Generator: Adobe Illustrator 19.2.1, SVG Export Plug-In . SVG Version: 6.00 Build 0)  -->
<svg version="1.1" id="Layer_1" xmlns="http://www.w3.org/2000/svg" xmlns:xlink="http://www.w3.org/1999/xlink" x="0px" y="0px"
	 viewBox="0 0 300 55" style="enable-background:new 0 0 300 55;" xml:space="preserve">
<style type="text/css">
	.st0{fill:#FFFFFF;}
</style>
<g>
	<path class="st0" d="M14.2,41.4h-4.1l-0.7-4.7h-5l-0.7,4.7H0l4.1-25.9h5.9L14.2,41.4z M5,33.2h3.9l-2-13.1L5,33.2z"/>
	<path class="st0" d="M21.6,15.2c4,0,6,2.4,6,6.5v0.8h-3.8v-1.1c0-1.8-0.7-2.5-2-2.5s-2,0.7-2,2.5c0,5.3,7.9,6.3,7.9,13.7
		c0,4.1-2.1,6.5-6.1,6.5s-6.1-2.4-6.1-6.5v-1.6h3.8v1.8c0,1.8,0.8,2.5,2.1,2.5s2.1-0.7,2.1-2.5c0-5.3-7.9-6.3-7.9-13.7
		C15.6,17.6,17.6,15.2,21.6,15.2z"/>
	<path class="st0" d="M29.9,15.5H34v25.9h-4.1V15.5z"/>
	<path class="st0" d="M45.6,33.9l2.8-18.4H54v25.9h-3.8V22.8l-2.8,18.5h-3.8l-3-18.3v18.3h-3.5V15.5h5.7L45.6,33.9z"/>
	<path class="st0" d="M56.6,21.7c0-4.1,2.2-6.5,6.2-6.5s6.2,2.4,6.2,6.5v13.4c0,4.1-2.2,6.5-6.2,6.5s-6.2-2.4-6.2-6.5V21.7z
		 M60.7,35.4c0,1.8,0.8,2.5,2.1,2.5c1.3,0,2.1-0.7,2.1-2.5v-14c0-1.8-0.8-2.5-2.1-2.5c-1.3,0-2.1,0.7-2.1,2.5V35.4z"/>
	<path class="st0" d="M77.7,36.6l3.1-21.1h3.7l-4,25.9h-6.1l-4-25.9h4.1L77.7,36.6z"/>
	<path class="st0" d="M84.2,41.4v-3.9h3.9V41l-1.8,4.1h-1.7l1.1-3.7H84.2z"/>
	<path class="st0" d="M95.6,15.5h12.6v3.7h-4.2v22.2h-4.1V19.2h-4.2V15.5z"/>
	<path class="st0" d="M114,41.4h-4.1V15.5h4.1v11.1h4.6V15.5h4.1v25.9h-4.1V30.3H114V41.4z"/>
	<path class="st0" d="M129.8,26.4h5.6v3.7h-5.6v7.6h7v3.7h-11.1V15.5h11.1v3.7h-7V26.4z"/>
	<path class="st0" d="M151.1,27h5.7v8.2c0,4.1-2.1,6.5-6.1,6.5s-6.1-2.4-6.1-6.5V21.7c0-4.1,2.1-6.5,6.1-6.5s6.1,2.4,6.1,6.5v2.5
		H153v-2.8c0-1.8-0.8-2.5-2.1-2.5c-1.3,0-2.1,0.7-2.1,2.5v14c0,1.8,0.8,2.5,2.1,2.5c1.3,0,2.1-0.7,2.1-2.5v-4.8h-1.8V27z"/>
	<path class="st0" d="M159.1,21.7c0-4.1,2.2-6.5,6.2-6.5c4,0,6.2,2.4,6.2,6.5v13.4c0,4.1-2.2,6.5-6.2,6.5c-4,0-6.2-2.4-6.2-6.5V21.7
		z M163.2,35.4c0,1.8,0.8,2.5,2.1,2.5c1.3,0,2.1-0.7,2.1-2.5v-14c0-1.8-0.8-2.5-2.1-2.5c-1.3,0-2.1,0.7-2.1,2.5V35.4z"/>
	<path class="st0" d="M173.7,21.7c0-4.1,2.2-6.5,6.2-6.5c4,0,6.2,2.4,6.2,6.5v13.4c0,4.1-2.2,6.5-6.2,6.5c-4,0-6.2-2.4-6.2-6.5V21.7
		z M177.8,35.4c0,1.8,0.8,2.5,2.1,2.5c1.3,0,2.1-0.7,2.1-2.5v-14c0-1.8-0.8-2.5-2.1-2.5c-1.3,0-2.1,0.7-2.1,2.5V35.4z"/>
	<path class="st0" d="M188.7,15.5h6.4c4.1,0,6.1,2.3,6.1,6.4V35c0,4.1-2,6.4-6.1,6.4h-6.4V15.5z M192.7,19.2v18.5h2.3
		c1.3,0,2.1-0.7,2.1-2.5V21.7c0-1.8-0.8-2.5-2.1-2.5H192.7z"/>
	<path class="st0" d="M209.5,15.5h6.4c4.1,0,6.1,2.3,6.1,6.4V35c0,4.1-2,6.4-6.1,6.4h-6.4V15.5z M213.5,19.2v18.5h2.3
		c1.3,0,2.1-0.7,2.1-2.5V21.7c0-1.8-0.8-2.5-2.1-2.5H213.5z"/>
	<path class="st0" d="M224.2,21.7c0-4.1,2.2-6.5,6.2-6.5c4,0,6.2,2.4,6.2,6.5v13.4c0,4.1-2.2,6.5-6.2,6.5c-4,0-6.2-2.4-6.2-6.5V21.7
		z M228.3,35.4c0,1.8,0.8,2.5,2.1,2.5c1.3,0,2.1-0.7,2.1-2.5v-14c0-1.8-0.8-2.5-2.1-2.5c-1.3,0-2.1,0.7-2.1,2.5V35.4z"/>
	<path class="st0" d="M251,31.7v3.4c0,4.1-2.1,6.5-6.1,6.5s-6.1-2.4-6.1-6.5V21.7c0-4.1,2.1-6.5,6.1-6.5s6.1,2.4,6.1,6.5v2.5h-3.8
		v-2.8c0-1.8-0.8-2.5-2.1-2.5c-1.3,0-2.1,0.7-2.1,2.5v14c0,1.8,0.8,2.5,2.1,2.5c1.3,0,2.1-0.7,2.1-2.5v-3.7H251z"/>
	<path class="st0" d="M252.3,15.5h12.6v3.7h-4.2v22.2h-4.1V19.2h-4.2V15.5z"/>
	<path class="st0" d="M266.3,21.7c0-4.1,2.2-6.5,6.2-6.5c4,0,6.2,2.4,6.2,6.5v13.4c0,4.1-2.2,6.5-6.2,6.5c-4,0-6.2-2.4-6.2-6.5V21.7
		z M270.3,35.4c0,1.8,0.8,2.5,2.1,2.5c1.3,0,2.1-0.7,2.1-2.5v-14c0-1.8-0.8-2.5-2.1-2.5c-1.3,0-2.1,0.7-2.1,2.5V35.4z"/>
	<path class="st0" d="M289.7,41.4c-0.2-0.7-0.4-1.1-0.4-3.2v-4.1c0-2.4-0.8-3.3-2.7-3.3h-1.4v10.5h-4.1V15.5h6.1c4.2,0,6,2,6,5.9v2
		c0,2.7-0.9,4.4-2.7,5.2c2,0.9,2.7,2.8,2.7,5.5v4c0,1.3,0,2.2,0.4,3.1H289.7z M285.3,19.2v7.9h1.6c1.5,0,2.4-0.7,2.4-2.7v-2.5
		c0-1.8-0.6-2.7-2.1-2.7H285.3z"/>
	<path class="st0" d="M300,37.4v3.9h-3.9v-3.9H300z"/>
</g>
</svg>
